<svg xmlns="http://www.w3.org/2000/svg" xmlns:xlink="http://www.w3.org/1999/xlink" width="100" zoomAndPan="magnify" viewBox="0 0 75 74.999997" height="100" preserveAspectRatio="xMidYMid meet" version="1.2"><g id="523dd32adc"><path style=" stroke:none;fill-rule:nonzero;fill:#ffda44;fill-opacity:1;" d="M 50.542969 2.332031 C 46.480469 0.824219 42.085938 0 37.5 0 C 32.914062 0 28.519531 0.824219 24.457031 2.332031 L 21.195312 37.5 L 24.457031 72.667969 C 28.519531 74.175781 32.914062 75 37.5 75 C 42.085938 75 46.480469 74.175781 50.542969 72.667969 L 53.804688 37.5 Z M 50.542969 2.332031 "/><path style=" stroke:none;fill-rule:nonzero;fill:#d80027;fill-opacity:1;" d="M 75 37.5 C 75 21.375 64.824219 7.632812 50.542969 2.332031 L 50.542969 72.667969 C 64.824219 67.367188 75 53.625 75 37.5 Z M 75 37.5 "/><path style=" stroke:none;fill-rule:nonzero;fill:#000000;fill-opacity:1;" d="M 0 37.5 C 0 53.625 10.175781 67.367188 24.457031 72.667969 L 24.457031 2.332031 C 10.175781 7.632812 0 21.375 0 37.5 Z M 0 37.5 "/></g></svg>