<svg xmlns="http://www.w3.org/2000/svg" xmlns:xlink="http://www.w3.org/1999/xlink" width="100" zoomAndPan="magnify" viewBox="0 0 75 74.999997" height="100" preserveAspectRatio="xMidYMid meet" version="1.2"><g id="2e336eb92f"><path style=" stroke:none;fill-rule:nonzero;fill:#000894;fill-opacity:1;" d="M 37.5 0 C 16.824219 0 0 16.820312 0 37.5 C 0 58.175781 16.824219 75 37.5 75 C 58.175781 75 75 58.175781 75 37.5 C 75 16.820312 58.175781 0 37.5 0 "/><path style=" stroke:none;fill-rule:nonzero;fill:#ffcc00;fill-opacity:1;" d="M 37.863281 3.628906 L 38.742188 6.425781 L 41.597656 6.425781 L 39.289062 8.152344 L 40.171875 10.949219 L 37.863281 9.21875 L 35.554688 10.949219 L 36.433594 8.152344 L 34.128906 6.425781 L 36.980469 6.425781 L 37.863281 3.628906 "/><path style=" stroke:none;fill-rule:nonzero;fill:#ffcc00;fill-opacity:1;" d="M 48.609375 5.589844 L 49.488281 8.386719 L 52.34375 8.386719 L 50.035156 10.113281 L 50.914062 12.910156 L 48.609375 11.179688 L 46.300781 12.910156 L 47.179688 10.113281 L 44.871094 8.386719 L 47.726562 8.386719 L 48.609375 5.589844 "/><path style=" stroke:none;fill-rule:nonzero;fill:#ffcc00;fill-opacity:1;" d="M 57.347656 10.949219 L 58.230469 13.742188 L 61.082031 13.742188 L 58.773438 15.472656 L 59.65625 18.265625 L 57.347656 16.539062 L 55.039062 18.265625 L 55.921875 15.472656 L 53.613281 13.742188 L 56.464844 13.742188 L 57.347656 10.949219 "/><path style=" stroke:none;fill-rule:nonzero;fill:#ffcc00;fill-opacity:1;" d="M 63.902344 18.265625 L 64.785156 21.0625 L 67.636719 21.0625 L 65.328125 22.789062 L 66.210938 25.585938 L 63.902344 23.859375 L 61.59375 25.585938 L 62.476562 22.789062 L 60.167969 21.0625 L 63.019531 21.0625 L 63.902344 18.265625 "/><path style=" stroke:none;fill-rule:nonzero;fill:#ffcc00;fill-opacity:1;" d="M 67.636719 28.921875 L 68.519531 31.714844 L 71.371094 31.714844 L 69.0625 33.445312 L 69.945312 36.238281 L 67.636719 34.511719 L 65.328125 36.238281 L 66.210938 33.445312 L 63.902344 31.714844 L 66.753906 31.714844 L 67.636719 28.921875 "/><path style=" stroke:none;fill-rule:nonzero;fill:#ffcc00;fill-opacity:1;" d="M 67.636719 39.457031 L 68.519531 42.253906 L 71.371094 42.253906 L 69.0625 43.980469 L 69.945312 46.777344 L 67.636719 45.046875 L 65.328125 46.777344 L 66.210938 43.980469 L 63.902344 42.253906 L 66.753906 42.253906 L 67.636719 39.457031 "/><path style=" stroke:none;fill-rule:nonzero;fill:#ffcc00;fill-opacity:1;" d="M 63.902344 49.414062 L 64.785156 52.210938 L 67.636719 52.210938 L 65.328125 53.9375 L 66.210938 56.734375 L 63.902344 55.003906 L 61.59375 56.734375 L 62.476562 53.9375 L 60.167969 52.210938 L 63.019531 52.210938 L 63.902344 49.414062 "/><path style=" stroke:none;fill-rule:nonzero;fill:#ffcc00;fill-opacity:1;" d="M 56.433594 56.734375 L 57.316406 59.527344 L 60.167969 59.527344 L 57.859375 61.257812 L 58.742188 64.050781 L 56.433594 62.324219 L 54.125 64.050781 L 55.007812 61.257812 L 52.699219 59.527344 L 55.550781 59.527344 L 56.433594 56.734375 "/><path style=" stroke:none;fill-rule:nonzero;fill:#ffcc00;fill-opacity:1;" d="M 47.570312 62.171875 L 48.453125 64.96875 L 51.308594 64.96875 L 49 66.695312 L 49.878906 69.492188 L 47.570312 67.761719 L 45.265625 69.492188 L 46.144531 66.695312 L 43.839844 64.96875 L 46.691406 64.96875 L 47.570312 62.171875 "/><path style=" stroke:none;fill-rule:nonzero;fill:#ffcc00;fill-opacity:1;" d="M 37.863281 64.050781 L 38.742188 66.847656 L 41.597656 66.847656 L 39.289062 68.574219 L 40.171875 71.371094 L 37.863281 69.644531 L 35.554688 71.371094 L 36.433594 68.574219 L 34.128906 66.847656 L 36.980469 66.847656 L 37.863281 64.050781 "/><path style=" stroke:none;fill-rule:nonzero;fill:#ffcc00;fill-opacity:1;" d="M 28.125 62.171875 L 29.007812 64.96875 L 31.859375 64.96875 L 29.550781 66.695312 L 30.433594 69.492188 L 28.125 67.761719 L 25.816406 69.492188 L 26.699219 66.695312 L 24.390625 64.96875 L 27.246094 64.96875 L 28.125 62.171875 "/><path style=" stroke:none;fill-rule:nonzero;fill:#ffcc00;fill-opacity:1;" d="M 18.53125 56.734375 L 19.414062 59.527344 L 22.265625 59.527344 L 19.957031 61.257812 L 20.839844 64.050781 L 18.53125 62.324219 L 16.222656 64.050781 L 17.105469 61.257812 L 14.796875 59.527344 L 17.652344 59.527344 L 18.53125 56.734375 "/><path style=" stroke:none;fill-rule:nonzero;fill:#ffcc00;fill-opacity:1;" d="M 11.820312 49.414062 L 12.703125 52.210938 L 15.554688 52.210938 L 13.25 53.9375 L 14.128906 56.734375 L 11.820312 55.003906 L 9.515625 56.734375 L 10.394531 53.9375 L 8.085938 52.210938 L 10.941406 52.210938 L 11.820312 49.414062 "/><path style=" stroke:none;fill-rule:nonzero;fill:#ffcc00;fill-opacity:1;" d="M 8.085938 39.457031 L 8.96875 42.253906 L 11.820312 42.253906 L 9.515625 43.980469 L 10.394531 46.777344 L 8.085938 45.046875 L 5.777344 46.777344 L 6.660156 43.980469 L 4.351562 42.253906 L 7.207031 42.253906 L 8.085938 39.457031 "/><path style=" stroke:none;fill-rule:nonzero;fill:#ffcc00;fill-opacity:1;" d="M 7.363281 28.921875 L 8.246094 31.714844 L 11.097656 31.714844 L 8.789062 33.445312 L 9.671875 36.238281 L 7.363281 34.511719 L 5.054688 36.238281 L 5.9375 33.445312 L 3.628906 31.714844 L 6.480469 31.714844 L 7.363281 28.921875 "/><path style=" stroke:none;fill-rule:nonzero;fill:#ffcc00;fill-opacity:1;" d="M 11.097656 18.265625 L 11.980469 21.0625 L 14.832031 21.0625 L 12.523438 22.789062 L 13.40625 25.585938 L 11.097656 23.859375 L 8.789062 25.585938 L 9.671875 22.789062 L 7.363281 21.0625 L 10.214844 21.0625 L 11.097656 18.265625 "/><path style=" stroke:none;fill-rule:nonzero;fill:#ffcc00;fill-opacity:1;" d="M 18.53125 10.949219 L 19.414062 13.742188 L 22.265625 13.742188 L 19.957031 15.472656 L 20.839844 18.265625 L 18.53125 16.539062 L 16.222656 18.265625 L 17.105469 15.472656 L 14.796875 13.742188 L 17.652344 13.742188 L 18.53125 10.949219 "/><path style=" stroke:none;fill-rule:nonzero;fill:#ffcc00;fill-opacity:1;" d="M 27.078125 5.589844 L 27.957031 8.386719 L 30.8125 8.386719 L 28.503906 10.113281 L 29.382812 12.910156 L 27.078125 11.179688 L 24.769531 12.910156 L 25.648438 10.113281 L 23.34375 8.386719 L 26.195312 8.386719 L 27.078125 5.589844 "/><path style=" stroke:none;fill-rule:nonzero;fill:#ffffff;fill-opacity:1;" d="M 34.101562 37.863281 L 27.960938 37.863281 L 27.960938 43.558594 L 34.804688 43.558594 L 34.804688 45.269531 L 25.921875 45.269531 L 25.921875 29.472656 L 34.453125 29.472656 L 34.453125 31.183594 L 27.960938 31.183594 L 27.960938 36.175781 L 34.101562 36.175781 L 34.101562 37.863281 "/><path style=" stroke:none;fill-rule:nonzero;fill:#ffffff;fill-opacity:1;" d="M 39.492188 29.472656 L 39.492188 38.824219 C 39.492188 42.363281 41.0625 43.863281 43.171875 43.863281 C 45.515625 43.863281 47.015625 42.316406 47.015625 38.824219 L 47.015625 29.472656 L 49.078125 29.472656 L 49.078125 38.683594 C 49.078125 43.535156 46.523438 45.527344 43.101562 45.527344 C 39.867188 45.527344 37.429688 43.675781 37.429688 38.777344 L 37.429688 29.472656 L 39.492188 29.472656 "/></g></svg>