<svg xmlns="http://www.w3.org/2000/svg" xmlns:xlink="http://www.w3.org/1999/xlink" width="100" zoomAndPan="magnify" viewBox="0 0 75 74.999997" height="100" preserveAspectRatio="xMidYMid meet" version="1.2"><g id="bd28fa6b95"><path style=" stroke:none;fill-rule:nonzero;fill:#3f51b5;fill-opacity:1;" d="M 48.75 1.875 L 48.75 1.722656 C 45.199219 0.605469 41.421875 0 37.5 0 C 16.789062 0 0 16.789062 0 37.5 C 0 38.765625 0.0664062 40.015625 0.1875 41.25 L 48.75 41.25 Z M 48.75 1.875 "/><path style=" stroke:none;fill-rule:nonzero;fill:#eceff1;fill-opacity:1;" d="M 48.75 13.125 L 65.960938 13.125 C 64.167969 11.03125 62.140625 9.15625 59.929688 7.5 L 48.75 7.5 Z M 48.75 13.125 "/><path style=" stroke:none;fill-rule:nonzero;fill:#eceff1;fill-opacity:1;" d="M 74.8125 41.25 L 0.1875 41.25 C 0.378906 43.175781 0.757812 45.046875 1.230469 46.875 L 73.773438 46.875 C 74.242188 45.046875 74.621094 43.175781 74.8125 41.25 Z M 74.8125 41.25 "/><path style=" stroke:none;fill-rule:nonzero;fill:#eceff1;fill-opacity:1;" d="M 64.257812 63.75 L 10.742188 63.75 C 12.855469 65.90625 15.238281 67.78125 17.816406 69.375 L 57.183594 69.375 C 59.761719 67.78125 62.144531 65.90625 64.257812 63.75 Z M 64.257812 63.75 "/><path style=" stroke:none;fill-rule:nonzero;fill:#eceff1;fill-opacity:1;" d="M 71.859375 52.5 L 3.140625 52.5 C 4 54.46875 5.023438 56.347656 6.195312 58.125 L 68.804688 58.125 C 69.976562 56.347656 70.996094 54.46875 71.859375 52.5 Z M 71.859375 52.5 "/><path style=" stroke:none;fill-rule:nonzero;fill:#eceff1;fill-opacity:1;" d="M 48.75 24.375 L 72.59375 24.375 C 71.859375 22.417969 70.976562 20.535156 69.941406 18.75 L 48.75 18.75 Z M 48.75 24.375 "/><path style=" stroke:none;fill-rule:nonzero;fill:#eceff1;fill-opacity:1;" d="M 48.75 35.625 L 74.90625 35.625 C 74.8125 33.710938 74.621094 31.828125 74.25 30 L 48.75 30 Z M 48.75 35.625 "/><path style=" stroke:none;fill-rule:nonzero;fill:#f44336;fill-opacity:1;" d="M 48.75 7.5 L 59.933594 7.5 C 56.703125 5.082031 53.085938 3.15625 49.167969 1.875 L 48.75 1.875 Z M 48.75 7.5 "/><path style=" stroke:none;fill-rule:nonzero;fill:#f44336;fill-opacity:1;" d="M 48.75 18.75 L 69.941406 18.75 C 68.785156 16.75 67.457031 14.867188 65.964844 13.125 L 48.75 13.125 Z M 48.75 18.75 "/><path style=" stroke:none;fill-rule:nonzero;fill:#f44336;fill-opacity:1;" d="M 48.75 30 L 74.246094 30 C 73.851562 28.0625 73.269531 26.195312 72.589844 24.375 L 48.75 24.375 Z M 48.75 30 "/><path style=" stroke:none;fill-rule:nonzero;fill:#f44336;fill-opacity:1;" d="M 48.75 41.25 L 74.8125 41.25 C 74.933594 40.015625 75 38.765625 75 37.5 C 75 36.867188 74.9375 36.25 74.90625 35.625 L 48.75 35.625 Z M 48.75 41.25 "/><path style=" stroke:none;fill-rule:nonzero;fill:#f44336;fill-opacity:1;" d="M 73.769531 46.875 L 1.230469 46.875 C 1.730469 48.8125 2.351562 50.699219 3.140625 52.5 L 71.859375 52.5 C 72.648438 50.699219 73.269531 48.8125 73.769531 46.875 Z M 73.769531 46.875 "/><path style=" stroke:none;fill-rule:nonzero;fill:#f44336;fill-opacity:1;" d="M 68.804688 58.125 L 6.195312 58.125 C 7.53125 60.144531 9.050781 62.027344 10.742188 63.75 L 64.261719 63.75 C 65.949219 62.027344 67.46875 60.144531 68.804688 58.125 Z M 68.804688 58.125 "/><path style=" stroke:none;fill-rule:nonzero;fill:#f44336;fill-opacity:1;" d="M 17.816406 69.375 C 23.542969 72.917969 30.269531 75 37.5 75 C 44.730469 75 51.457031 72.917969 57.183594 69.375 Z M 17.816406 69.375 "/><path style=" stroke:none;fill-rule:nonzero;fill:#ffffff;fill-opacity:1;" d="M 11.71875 16.875 L 12.589844 18.726562 L 14.53125 19.019531 L 13.125 20.464844 L 13.460938 22.5 L 11.71875 21.539062 L 9.976562 22.5 L 10.3125 20.464844 L 8.90625 19.019531 L 10.847656 18.726562 Z M 11.71875 16.875 "/><path style=" stroke:none;fill-rule:nonzero;fill:#ffffff;fill-opacity:1;" d="M 19.21875 16.875 L 20.089844 18.726562 L 22.03125 19.019531 L 20.625 20.464844 L 20.960938 22.5 L 19.21875 21.539062 L 17.476562 22.5 L 17.8125 20.464844 L 16.40625 19.019531 L 18.347656 18.726562 Z M 19.21875 16.875 "/><path style=" stroke:none;fill-rule:nonzero;fill:#ffffff;fill-opacity:1;" d="M 4.21875 21.539062 L 5.960938 22.5 L 5.625 20.464844 L 7.03125 19.019531 L 5.089844 18.726562 L 5.082031 18.707031 C 4.464844 19.773438 3.894531 20.871094 3.382812 22 Z M 4.21875 21.539062 "/><path style=" stroke:none;fill-rule:nonzero;fill:#ffffff;fill-opacity:1;" d="M 26.71875 16.875 L 27.589844 18.726562 L 29.53125 19.019531 L 28.125 20.464844 L 28.460938 22.5 L 26.71875 21.539062 L 24.976562 22.5 L 25.3125 20.464844 L 23.90625 19.019531 L 25.847656 18.726562 Z M 26.71875 16.875 "/><path style=" stroke:none;fill-rule:nonzero;fill:#ffffff;fill-opacity:1;" d="M 34.21875 16.875 L 35.089844 18.726562 L 37.03125 19.019531 L 35.625 20.464844 L 35.960938 22.5 L 34.21875 21.539062 L 32.476562 22.5 L 32.8125 20.464844 L 31.40625 19.019531 L 33.347656 18.726562 Z M 34.21875 16.875 "/><path style=" stroke:none;fill-rule:nonzero;fill:#ffffff;fill-opacity:1;" d="M 41.25 16.875 L 42.121094 18.726562 L 44.0625 19.019531 L 42.65625 20.464844 L 42.992188 22.5 L 41.25 21.539062 L 39.507812 22.5 L 39.84375 20.464844 L 38.4375 19.019531 L 40.378906 18.726562 Z M 41.25 16.875 "/><path style=" stroke:none;fill-rule:nonzero;fill:#ffffff;fill-opacity:1;" d="M 11.71875 31.875 L 12.589844 33.726562 L 14.53125 34.019531 L 13.125 35.464844 L 13.460938 37.5 L 11.71875 36.539062 L 9.976562 37.5 L 10.3125 35.464844 L 8.90625 34.019531 L 10.847656 33.726562 Z M 11.71875 31.875 "/><path style=" stroke:none;fill-rule:nonzero;fill:#ffffff;fill-opacity:1;" d="M 19.21875 31.875 L 20.089844 33.726562 L 22.03125 34.019531 L 20.625 35.464844 L 20.960938 37.5 L 19.21875 36.539062 L 17.476562 37.5 L 17.8125 35.464844 L 16.40625 34.019531 L 18.347656 33.726562 Z M 19.21875 31.875 "/><path style=" stroke:none;fill-rule:nonzero;fill:#ffffff;fill-opacity:1;" d="M 26.71875 31.875 L 27.589844 33.726562 L 29.53125 34.019531 L 28.125 35.464844 L 28.460938 37.5 L 26.71875 36.539062 L 24.976562 37.5 L 25.3125 35.464844 L 23.90625 34.019531 L 25.847656 33.726562 Z M 26.71875 31.875 "/><path style=" stroke:none;fill-rule:nonzero;fill:#ffffff;fill-opacity:1;" d="M 4.21875 31.875 L 5.089844 33.726562 L 7.03125 34.019531 L 5.625 35.464844 L 5.960938 37.5 L 4.21875 36.539062 L 2.476562 37.5 L 2.8125 35.464844 L 1.40625 34.019531 L 3.347656 33.726562 Z M 4.21875 31.875 "/><path style=" stroke:none;fill-rule:nonzero;fill:#ffffff;fill-opacity:1;" d="M 34.21875 31.875 L 35.089844 33.726562 L 37.03125 34.019531 L 35.625 35.464844 L 35.960938 37.5 L 34.21875 36.539062 L 32.476562 37.5 L 32.8125 35.464844 L 31.40625 34.019531 L 33.347656 33.726562 Z M 34.21875 31.875 "/><path style=" stroke:none;fill-rule:nonzero;fill:#ffffff;fill-opacity:1;" d="M 41.25 31.875 L 42.121094 33.726562 L 44.0625 34.019531 L 42.65625 35.464844 L 42.992188 37.5 L 41.25 36.539062 L 39.507812 37.5 L 39.84375 35.464844 L 38.4375 34.019531 L 40.378906 33.726562 Z M 41.25 31.875 "/><path style=" stroke:none;fill-rule:nonzero;fill:#ffffff;fill-opacity:1;" d="M 13.59375 24.375 L 14.464844 26.226562 L 16.40625 26.519531 L 15 27.964844 L 15.335938 30 L 13.59375 29.039062 L 11.851562 30 L 12.1875 27.964844 L 10.78125 26.519531 L 12.722656 26.226562 Z M 13.59375 24.375 "/><path style=" stroke:none;fill-rule:nonzero;fill:#ffffff;fill-opacity:1;" d="M 21.09375 24.375 L 21.964844 26.226562 L 23.90625 26.519531 L 22.5 27.964844 L 22.835938 30 L 21.09375 29.039062 L 19.351562 30 L 19.6875 27.964844 L 18.28125 26.519531 L 20.222656 26.226562 Z M 21.09375 24.375 "/><path style=" stroke:none;fill-rule:nonzero;fill:#ffffff;fill-opacity:1;" d="M 6.09375 24.375 L 6.964844 26.226562 L 8.90625 26.519531 L 7.5 27.964844 L 7.835938 30 L 6.09375 29.039062 L 4.351562 30 L 4.6875 27.964844 L 3.28125 26.519531 L 5.222656 26.226562 Z M 6.09375 24.375 "/><path style=" stroke:none;fill-rule:nonzero;fill:#ffffff;fill-opacity:1;" d="M 28.59375 24.375 L 29.464844 26.226562 L 31.40625 26.519531 L 30 27.964844 L 30.335938 30 L 28.59375 29.039062 L 26.851562 30 L 27.1875 27.964844 L 25.78125 26.519531 L 27.722656 26.226562 Z M 28.59375 24.375 "/><path style=" stroke:none;fill-rule:nonzero;fill:#ffffff;fill-opacity:1;" d="M 36.09375 24.375 L 36.964844 26.226562 L 38.90625 26.519531 L 37.5 27.964844 L 37.835938 30 L 36.09375 29.039062 L 34.351562 30 L 34.6875 27.964844 L 33.28125 26.519531 L 35.222656 26.226562 Z M 36.09375 24.375 "/><path style=" stroke:none;fill-rule:nonzero;fill:#ffffff;fill-opacity:1;" d="M 43.125 24.375 L 43.996094 26.226562 L 45.9375 26.519531 L 44.53125 27.964844 L 44.867188 30 L 43.125 29.039062 L 41.382812 30 L 41.71875 27.964844 L 40.3125 26.519531 L 42.253906 26.226562 Z M 43.125 24.375 "/><path style=" stroke:none;fill-rule:nonzero;fill:#ffffff;fill-opacity:1;" d="M 13.59375 9.375 L 14.464844 11.226562 L 16.40625 11.519531 L 15 12.964844 L 15.335938 15 L 13.59375 14.039062 L 11.851562 15 L 12.1875 12.964844 L 10.78125 11.519531 L 12.722656 11.226562 Z M 13.59375 9.375 "/><path style=" stroke:none;fill-rule:nonzero;fill:#ffffff;fill-opacity:1;" d="M 21.09375 9.375 L 21.964844 11.226562 L 23.90625 11.519531 L 22.5 12.964844 L 22.835938 15 L 21.09375 14.039062 L 19.351562 15 L 19.6875 12.964844 L 18.28125 11.519531 L 20.222656 11.226562 Z M 21.09375 9.375 "/><path style=" stroke:none;fill-rule:nonzero;fill:#ffffff;fill-opacity:1;" d="M 28.59375 9.375 L 29.464844 11.226562 L 31.40625 11.519531 L 30 12.964844 L 30.335938 15 L 28.59375 14.039062 L 26.851562 15 L 27.1875 12.964844 L 25.78125 11.519531 L 27.722656 11.226562 Z M 28.59375 9.375 "/><path style=" stroke:none;fill-rule:nonzero;fill:#ffffff;fill-opacity:1;" d="M 36.09375 9.375 L 36.964844 11.226562 L 38.90625 11.519531 L 37.5 12.964844 L 37.835938 15 L 36.09375 14.039062 L 34.351562 15 L 34.6875 12.964844 L 33.28125 11.519531 L 35.222656 11.226562 Z M 36.09375 9.375 "/><path style=" stroke:none;fill-rule:nonzero;fill:#ffffff;fill-opacity:1;" d="M 43.125 9.375 L 43.996094 11.226562 L 45.9375 11.519531 L 44.53125 12.964844 L 44.867188 15 L 43.125 14.039062 L 41.382812 15 L 41.71875 12.964844 L 40.3125 11.519531 L 42.253906 11.226562 Z M 43.125 9.375 "/><path style=" stroke:none;fill-rule:nonzero;fill:#ffffff;fill-opacity:1;" d="M 20.960938 7.5 L 20.625 5.464844 L 22.03125 4.019531 L 21 3.863281 C 19.894531 4.40625 18.824219 5 17.78125 5.644531 L 17.476562 7.5 L 19.21875 6.539062 Z M 20.960938 7.5 "/><path style=" stroke:none;fill-rule:nonzero;fill:#ffffff;fill-opacity:1;" d="M 26.71875 1.875 L 27.589844 3.726562 L 29.53125 4.019531 L 28.125 5.464844 L 28.460938 7.5 L 26.71875 6.539062 L 24.976562 7.5 L 25.3125 5.464844 L 23.90625 4.019531 L 25.847656 3.726562 Z M 26.71875 1.875 "/><path style=" stroke:none;fill-rule:nonzero;fill:#ffffff;fill-opacity:1;" d="M 34.21875 1.875 L 35.089844 3.726562 L 37.03125 4.019531 L 35.625 5.464844 L 35.960938 7.5 L 34.21875 6.539062 L 32.476562 7.5 L 32.8125 5.464844 L 31.40625 4.019531 L 33.347656 3.726562 Z M 34.21875 1.875 "/><path style=" stroke:none;fill-rule:nonzero;fill:#ffffff;fill-opacity:1;" d="M 41.25 1.875 L 42.121094 3.726562 L 44.0625 4.023438 L 42.65625 5.464844 L 42.992188 7.5 L 41.25 6.539062 L 39.507812 7.5 L 39.84375 5.464844 L 38.4375 4.019531 L 40.378906 3.726562 Z M 41.25 1.875 "/></g></svg>